<svg width="708" height="385" viewBox="0 0 708 385" xmlns="http://www.w3.org/2000/svg"><title>co2</title><g fill="none" fill-rule="evenodd"><text font-family="OpenSans-Bold, Open Sans" font-size="16" font-weight="bold" letter-spacing="-.133" fill="#B8B8B8" transform="translate(-5)"><tspan x="235" y="382">MILENNIA BEFORE PRESENT DAY (0 = 1950)</tspan></text><g font-size="16" font-family="OpenSans, Open Sans" letter-spacing="-.133" fill="#B8B8B8"><text transform="translate(102 323)"><tspan x=".477" y="17">400</tspan></text><text transform="translate(102 323)"><tspan x="73.477" y="17">350</tspan></text><text transform="translate(102 323)"><tspan x="146.477" y="17">300</tspan></text><text transform="translate(102 323)"><tspan x="219.477" y="17">250</tspan></text><text transform="translate(102 323)"><tspan x="292.477" y="17">200</tspan></text><text transform="translate(102 323)"><tspan x="365.477" y="17">150</tspan></text><text transform="translate(102 323)"><tspan x="438.477" y="17">100</tspan></text><text transform="translate(102 323)"><tspan x="511.485" y="17">50</tspan></text><text transform="translate(102 323)"><tspan x="575.492" y="17">0</tspan></text></g><g fill="#B8B8B8"><path d="M81 312h627v1H81z"/><text font-family="OpenSans, Open Sans" font-size="16" letter-spacing="-.133" transform="translate(37 300)"><tspan x=".477" y="17">180</tspan></text><path d="M81 256h627v1H81z"/><text font-family="OpenSans, Open Sans" font-size="16" letter-spacing="-.133" transform="translate(37 244)"><tspan x=".477" y="17">220</tspan></text><path d="M81 199h627v1H81z"/><text font-family="OpenSans, Open Sans" font-size="16" letter-spacing="-.133" transform="translate(37 187)"><tspan x=".477" y="17">260</tspan></text><path d="M81 143h627v1H81z"/><text font-family="OpenSans, Open Sans" font-size="16" letter-spacing="-.133" transform="translate(37 131)"><tspan x=".477" y="17">300</tspan></text><path d="M81 83h627v1H81z"/><text font-family="OpenSans, Open Sans" font-size="16" letter-spacing="-.133" transform="translate(37 72)"><tspan x=".477" y="17">340</tspan></text><g><path d="M81 29h627v1H81z"/><text font-family="OpenSans, Open Sans" font-size="16" letter-spacing="-.133" transform="translate(37 17)"><tspan x=".477" y="17">380</tspan></text></g></g><path stroke="#C16A41" stroke-width="2" d="M79.098 176.514l2.084-11.55 8.812 11.265 7.77 1.04 4.71 11.264.02 21.27 5.125 5.687 9.352-19.553 4.687 24.937 3.41-1 8.66 11.09.54 18.71 6.555-3.605 8.354 41.644 8.055-5.992 7.29 30.777 9.835-32.058 1.216-15.214 4.688-5.882 5.513 7.597 1.737 12.326 6.228 6.75v-66.365l4.71 16.233 2.82-4.648 3.408-51.804 3.035-22.006 2.603-9.946 3.28 12.674v24.07l2.93 6.944 1.347-11.18 3.89 8.402 4.124 3.104 3.816 23.854 3.41-.52 2.584 7.076 3.564-32.84 1.54 16.32 3.126 4.124v19.77l7.638 20.1 4.494-27.786 7.27 18.054 3.932 27.043 8.72 13.653-1.388-16.106 5.966-22.215 5.188 8.223 4.688-7.834 7.464 45.508.5 12.978 7.952 2.737 2.084-3.26.5-22.942 3.43 9.396.02-34.62 5.27 26 2.625 8.787 7.446 8.79.017-20.144 4.82 2.083-1.02-9.855 3.624-5.687 1.585-52.888 2.236-28.5 3.863 40.41.652 9.485 4.992-6.576 1.563-7.188 2.91 12.763 2.737 8.812-.062 11.5 3.93-8.446 1.154 33.786 1.517 6.91 5.514-9.467-1.562-37.59 3.646-15.235.52-4.47 2.452 10.067 1.39-15.318 2.562-3.95 8.68 36.762 3.82-21.598 2.93 7.942v-10.7l7.618 9.548 1.737 23.05 1.562 10.632 4.688 1.888 1.388-14.847 4.064-5.862 3.103 7.12-1.237 23.653 5.8 14.326 3.124-21.835 8.834 35.61 6.056-7.576 2.584 2.063 3.625 13.736 8.687-4.147-.715-19.077 4.125 6.054 7.79 14.786 14.87-14.86 3.625 10.048v-6.763l6.514 4.657 2-7.423-2.043-4.84 6.166-8.64 5.842-116.44 4.187 26.5 2.778-14.887 2.43 7.187 4.147-5.186-.522 13.847 3.952-6.033 2.084 6.21 1.023 3.062 2.563-15.585 2.082 18.013 2.45 8.55 4.688 13.806.522 20.555 3.777-1.564 3.994 5.555 4.32-1.39 2.02 8.274 4.165-7.098 5.902 7.965 1.563 25 5.667-4.665.5-27.785 1.52-3.083 1.562-9.793 7.73 30.32 7.053-14.46 6.076 6.446 5.015 44.813 14.02-22.528 1-12.265 5.013 13.41 1.216 16.32 2.582 9.55 2.95-30.67 4.648 34.57 4.992-7.9 2.543-10.356 3.082-13.243 7.187-.693 5.71 9.856 4.99 17.533 2.41 6.62 3.647-4.84 6.75 3.47 2.84 9.334 3.994-78.89 4.993-5.666-.478-34.64 6.79 10.917 2.085-10.61 9.202-29.173V.97"/><text transform="rotate(-90 8.5 172)" font-family="OpenSans-Bold, Open Sans" font-size="16" font-weight="bold" letter-spacing="-.133" fill="#B8B8B8"><tspan x="-95.5" y="175.5">PARTS PER MILLION OF CO</tspan> <tspan x="110.183" y="175.5" font-size="12">2</tspan></text></g></svg>