<svg width="411" height="260" viewBox="0 0 411 260" xmlns="http://www.w3.org/2000/svg" xmlns:xlink="http://www.w3.org/1999/xlink"><title>Happy planet</title><defs><ellipse id="a" cx="129.578" cy="130" rx="129.578" ry="130"/><path d="M1.835 22.23c-2.524 6.12.802 11.08 7.44 11.08h47.25c6.632 0 10.144-5.037 7.284-11.013 0 0-5.035-22.26-31.182-22.297C6.482-.037 1.835 22.23 1.835 22.23z" id="c"/></defs><g fill="none" fill-rule="evenodd"><g transform="translate(76.692)"><mask id="b" fill="#fff"><use xlink:href="#a"/></mask><use fill="#16A4FD" xlink:href="#a"/><g mask="url(#b)"><g transform="rotate(-34 91.463 -114.723)"><rect fill="#51DE4D" x="60.254" width="169.747" height="31.2" rx="15.6"/><rect fill="#51DE4D" y="62.4" width="169.747" height="31.2" rx="15.6"/><path d="M51.14 140.62c.304-8.588 7.516-15.58 16.116-15.617l137.54-.592c8.597-.036 15.566 6.897 15.566 15.5v.068c0 8.597-6.97 15.566-15.57 15.566H66.186c-8.6 0-15.325-6.972-15.023-15.55l-.022.626z" fill="#51DE4D"/><rect fill="#51DE4D" x="73.211" y="187.2" width="169.747" height="31.2" rx="15.6"/><g transform="translate(2.954 93.06)"><rect fill="#51DE4D" x="46.648" width="105.606" height="32.5" rx="16.25"/><rect fill="#16A4FD" width="73.211" height="32.5" rx="16.25"/></g></g><g transform="rotate(-34 556.917 221.48)"><rect fill="#51DE4D" x="20.05" y="62.336" width="169.747" height="31.2" rx="15.6"/><g transform="rotate(180 100.732 31.636)"><rect fill="#51DE4D" x="46.648" width="105.606" height="32.5" rx="16.25"/><rect fill="#16A4FD" width="73.211" height="32.5" rx="16.25"/></g><rect fill="#51DE4D" x=".362" y=".111" width="169.747" height="31.2" rx="15.6"/></g></g><g mask="url(#b)"><g transform="matrix(1 0 0 -1 98.565 193.25)"><mask id="d" fill="#fff"><use xlink:href="#c"/></mask><use fill="#525252" xlink:href="#c"/><path d="M32.956 19.724c11.092 0 20.085-9.022 20.085-20.15 0-11.13-8.992-17.474-20.084-17.474-11.092 0-20.085 6.345-20.085 17.474 0 11.128 8.994 20.15 20.086 20.15z" fill="#C16A41" mask="url(#d)"/></g><g stroke-linecap="round" stroke="#525252" stroke-width="8"><path d="M66.326 134.877c.01-12.5 9.224-22.136 18.474-22.127 9.25.01 18.23 9.18 18.526 22.163M158.326 134.877c.01-12.5 9.224-22.136 18.474-22.127 9.25.01 18.23 9.18 18.526 22.163"/></g></g></g><path d="M21.798 234l-3.16-2.877C7.41 220.943 0 214.23 0 205.99 0 199.274 5.275 194 11.99 194c3.792 0 7.432 1.766 9.808 4.556 2.377-2.79 6.017-4.556 9.81-4.556 6.714 0 11.99 5.275 11.99 11.99 0 8.24-7.413 14.953-18.64 25.154L21.8 234zM377 78.643l-4.64-4.147C355.88 59.826 345 50.15 345 38.276 345 28.603 352.744 21 362.6 21c5.568 0 10.912 2.544 14.4 6.565 3.488-4.02 8.832-6.565 14.4-6.565 9.856 0 17.6 7.602 17.6 17.277 0 11.874-10.88 21.55-27.36 36.25L377 78.644zM399 163.616l-1.74-1.555c-6.18-5.5-10.26-9.128-10.26-13.58 0-3.63 2.904-6.48 6.6-6.48 2.088 0 4.092.954 5.4 2.462 1.308-1.508 3.312-2.462 5.4-2.462 3.696 0 6.6 2.85 6.6 6.48 0 4.452-4.08 8.08-10.26 13.593l-1.74 1.543z" fill="#DF4747"/></g></svg>