<svg width="208" height="172" viewBox="0 0 208 172" xmlns="http://www.w3.org/2000/svg"><title>NASA logo</title><g fill="none" fill-rule="evenodd"><path d="M182.19 85.622c0 46.888-38.717 85.478-85.76 85.478-47.045 0-85.76-38.592-85.76-85.478C10.67 38.732 48.48.145 96.43.145c46.135 0 85.76 38.59 85.76 85.477" fill="#1A5DAD"/><path d="M115.775 130.61c36.64 15.038 30.28-22.963 10.75-52.06-11.07-16.485-25.505-30.218-34.61-36.847-30.192-21.984-48.83-8.65-27.51 34.706 6.892 14.015 15.746 23.48 22.66 32.394 5.28 6.808 15.567 10.217 11.944 13.448-4.087 3.643-13.97-12.425-13.97-12.425-7.306-8.788-14.266-18.163-21.44-31.03-16.39-29.385-14.026-59.38 15.64-46.313 25.175 11.093 49.22 42.206 58.89 64.3 4.464 10.202 16.64 50.57-22.138 34.25" fill="#FFF"/><path d="M1.837 110.96c16.12-10.71 31.4-17.624 57.407-26.194C95.79 72.72 123.294 64.626 157.04 47.7c15.106-7.574 41.317-24.56 50.692-39.326-2.808 5.715-11.5 16.838-15.433 21.76-45.79 57.2-143.328 53.957-189.82 81.42" fill="#EE293D"/><path d="M25.22 69.153c14.752.116 13.305-.03 13.477.143.258 0 11.78 19.796 11.78 19.967 0 .084-.087-7.035-.087-15.94 0-1.027-2.836-4.027-2.75-4.027 4.21 0 9.713.086 9.713.086-2.062 2.4-2.474 2.203-2.49 3.686-.06 4.768-.113 13.58 0 23.48.015 1.483 1.117 2.056 2.922 4.627h-13.5c-4.384-7.284-12.42-20.948-12.38-20.91.063.063-.172 8.572.085 15.425.087 2.265 1.12 3 3.01 5.057 0 0 2.178-.06-10.575.085 3.87-2.057 3.355-4.627 3.353-4.713-.14-9.475-.03-17.57-.03-22.8 0-.856-.057-.77-2.72-4.027M71.345 83.78c1.24-4.29 2.297-8.125 2.8-10.625.085-.43-.946-1.97-2.58-3.514l-.115-.235c7.877.025 16.106.068 16.106.068 2.15 5.228 7.05 19.88 10.747 28.88.977 2.377 2.665 2.826 2.665 2.826-6.706-.086-19.15-.028-19.085-.086 3.352-3 2.922-3 1.46-7.37H72.855c-2.15 4.97.67 7.303 1.03 7.285-2.386.122-10.487 0-10.487 0 4.385-3.087 4.126-4.03 4.126-4.03 1.205-4.274 2.6-8.96 3.822-13.2l4.303.003-1.85 5.912h8.34L77.494 77.87s-.924 2.956-1.85 5.91h-4.302m72.05.43c1.238-4.29 2.297-8.126 2.798-10.627.086-.427-.946-1.97-2.58-3.513l-.115-.24c7.88.025 16.11.067 16.11.067 2.147 5.228 7.048 19.88 10.745 28.878.977 2.38 2.665 2.83 2.665 2.83-6.703-.088-19.148-.028-19.084-.088 3.356-2.998 2.926-2.998 1.464-7.368h-10.49c-2.15 4.97.67 7.3 1.03 7.282-2.385.12-10.488 0-10.488 0 4.384-3.086 4.127-4.03 4.127-4.03 1.205-4.275 2.6-8.957 3.824-13.197h4.3c-.925 2.958-1.845 5.914-1.845 5.914h8.338l-4.645-11.826s-.922 2.956-1.847 5.912h-4.303m-13.562-7.023c-.17-6.086 0-8.057 0-8.057-2.666 2.143-1.32 1.87-7.994.772-19.234-3.17-20.7 14.745-10.233 18.763 8.785 3.375 11.9 4.036 10.574 7.2-.43 1.03-8.424 4.8-16.676-2.827l.17 10.626c1.03-1.06 3.87-3 3.87-3 .086 0 8.947 3.896 16.937-.17 12.295-6.256 6.158-16.38-6.964-20.396-10.92-3.342-.602-11.14 10.23-2.828m-32.11-69.36c0 .384-.313.7-.697.7-.383 0-.7-.316-.7-.7 0-.38.317-.695.7-.695.383 0 .697.317.697.697m4.844 10.552c0 .47-.39.855-.86.855s-.86-.386-.86-.856.39-.857.86-.857.86.387.86.856m12.568 17.244c0 .47-.387.856-.86.856-.47 0-.86-.384-.86-.853 0-.47.362-.858.834-.858.474 0 .888.386.888.856m-20.204-11.3c0 .38-.314.694-.7.694-.382 0-.698-.312-.698-.694 0-.382.316-.697.7-.697.384 0 .698.313.698.695m7.526 3.965c0 .38-.315.695-.697.695-.382 0-.7-.315-.7-.695 0-.384.318-.698.7-.698.383 0 .7.314.7.696M92.59 17.28c0 .47-.39.857-.86.857-.472 0-.86-.386-.86-.856s.388-.854.86-.854c.47 0 .86.387.86.858M81.2 24.19c0 .383-.315.697-.7.697-.383 0-.698-.314-.698-.696 0-.38.315-.693.7-.693.383 0 .698.315.698.697m2.036 1.39c0 .383-.315.698-.7.698-.382 0-.698-.314-.698-.697 0-.382.316-.695.7-.695.383 0 .698.313.698.695m2.044 1.393c0 .383-.315.698-.7.698-.382 0-.698-.315-.698-.698 0-.38.316-.695.7-.695.383 0 .698.316.698.696m-3.113 2.68c0 .38-.317.694-.7.694-.383 0-.7-.313-.7-.695 0-.38.317-.697.7-.697.383 0 .7.314.7.695M65.937 41.01c0 .384-.316.697-.7.697-.382 0-.698-.313-.698-.696 0-.38.312-.696.695-.696.383 0 .7.316.7.698m3.008 3.643c0 .383-.316.698-.7.698-.382 0-.698-.315-.698-.696 0-.382.316-.695.7-.695.382 0 .698.313.698.697m-2.39 58.805c0 .383-.316.696-.7.696-.383 0-.7-.312-.7-.695 0-.38.317-.697.7-.697.384 0 .7.318.7.7m.43 16.223c0 .47-.39.856-.86.856s-.86-.384-.86-.854.39-.857.86-.857.86.385.86.856M57.738 128c0 .38-.317.697-.7.697-.382 0-.7-.316-.7-.696 0-.38.318-.696.7-.696.383 0 .7.313.7.696m-11.07 3.366c0 .47-.39.856-.86.856s-.86-.386-.86-.856.39-.858.86-.858.86.387.86.858m-2.256-7.496c0 .468-.39.856-.86.856s-.86-.388-.86-.856c0-.47.39-.857.86-.857s.86.385.86.856m-1.288 4.767c0 .382-.317.695-.7.695-.383 0-.7-.314-.7-.696 0-.382.317-.697.7-.697.383 0 .7.314.7.696m-8.277-3.962c0 .38-.317.697-.7.697-.383 0-.7-.316-.7-.697 0-.38.317-.696.7-.696.383 0 .698.315.698.696m28.91 13.387c0 .382-.29.696-.672.696-.383 0-.726-.314-.726-.697 0-.38.316-.698.698-.698.384 0 .7.313.7.694m8.705-6.37c0 .472-.36.858-.833.858-.47 0-.886-.386-.886-.858 0-.468.39-.855.86-.855s.86.386.86.854m.997 8.194c0 .38-.344.697-.725.697-.384 0-.7-.316-.7-.698 0-.383.316-.696.7-.696.38 0 .725.315.725.696m35.782-7.823c0 .38-.317.697-.7.697-.384 0-.7-.316-.7-.697 0-.383.316-.696.7-.696.383 0 .7.31.7.695m-16.655 5.893c0 .382-.315.695-.7.695-.38 0-.698-.313-.698-.695 0-.382.317-.697.7-.697.383 0 .697.316.697.698m44.814 8.467c0 .382-.316.696-.7.696-.382 0-.7-.314-.7-.696 0-.382.318-.696.7-.696.384 0 .7.313.7.695m3.65-32.942c0 .47-.386.858-.86.858s-.86-.39-.86-.86.39-.857.86-.857.86.388.86.86m-6.87 4.66c0 .38-.316.697-.7.697-.384 0-.7-.316-.7-.697 0-.38.316-.695.698-.695.388 0 .703.314.703.696m6.77 1.344c0 .47-.388.858-.86.858-.473 0-.86-.387-.86-.857s.39-.856.86-.856.86.386.86.855m-6.77 8.3c0 .383-.316.697-.7.697-.384 0-.7-.316-.7-.698 0-.382.316-.697.7-.697.386 0 .7.315.7.697m17.513-18.96c0 .383-.317.698-.7.698-.38 0-.696-.315-.696-.697 0-.382.313-.696.695-.696.382 0 .7.313.7.695m1.695 4.23c0 .472-.36.858-.832.858s-.886-.383-.886-.855c0-.47.386-.855.856-.855s.86.384.86.854m12.065 5.036c0 .47-.385.856-.86.856-.472 0-.86-.388-.86-.858s.388-.86.86-.86c.475 0 .86.39.86.86m-12.254 8.945c0 .38-.318.696-.7.696-.383 0-.7-.314-.7-.695 0-.383.317-.697.7-.697.382 0 .7.313.7.696m7.738-7.285c0 .384-.315.698-.697.698-.38 0-.696-.314-.696-.696 0-.38.317-.696.7-.696.382 0 .697.315.697.697m-1.427 11.247c0 .382-.314.696-.697.696-.385 0-.7-.314-.7-.696 0-.38.315-.697.7-.697.383 0 .698.318.698.7m3.28-18.694c0 .587-.485 1.07-1.073 1.07-.59 0-1.075-.483-1.075-1.07 0-.59.486-1.07 1.076-1.07.588 0 1.075.48 1.075 1.07" fill="#FFF"/><path fill="#FFF" d="M161.716 109.03l-.32 2.946-2.93.322 2.953.32.32 3.054.324-3.054 2.9-.374-2.927-.268-.325-2.945m-6.45 21.9c0 .59-.485 1.07-1.074 1.07-.588 0-1.074-.48-1.074-1.07 0-.586.486-1.07 1.075-1.07.59 0 1.075.484 1.075 1.07"/><path fill="#FFF" d="M154.196 127.665l-.323 2.945-2.928.322 2.954.322.32 3.052.324-3.052 2.9-.375-2.93-.27-.32-2.948m-79.097-85.21c0 .587-.485 1.07-1.074 1.07-.59 0-1.075-.483-1.075-1.07 0-.59.48-1.07 1.072-1.07.59 0 1.074.48 1.074 1.07"/><path fill="#FFF" d="M74.022 39.185L73.7 42.13l-2.93.322 2.956.32.322 3.054.322-3.054 2.902-.372-2.93-.27-.32-2.945m41.054-22.653c0 .587-.486 1.07-1.075 1.07-.585 0-1.07-.483-1.07-1.07 0-.588.485-1.072 1.07-1.072.59 0 1.08.484 1.08 1.072"/><path fill="#FFF" d="M114 13.262l-.32 2.946-2.93.322 2.956.322.32 3.053.324-3.053 2.9-.376-2.928-.268-.322-2.946M66.473 148.076c0 .588-.485 1.07-1.074 1.07-.596 0-1.08-.482-1.08-1.07 0-.587.484-1.072 1.076-1.072.588 0 1.073.485 1.073 1.072"/><path fill="#FFF" d="M65.424 144.804l-.32 2.946-2.93.322 2.955.32.32 3.054.32-3.053 2.902-.374-2.928-.27-.323-2.95"/><path d="M207.724 8.374c-13.07 38.684-65.426 68.556-109.5 97.073-26.587 17.207-52.985 37.014-71.158 53.87-4.79 4.444.976-1.663-.86.214 25.362-29.132 54.536-46.49 70.657-57.41 27.265-18.48 42.773-23.14 89.81-66.365m-173.935 68.46c-4.693 2.29-8.898 4.554-12.465 6.764l2.17.787c3.12-1.917 6.866-3.916 10.81-5.68" fill="#EE293D"/><path d="M37.518 147.503c-4.29 3.736-8.725 7.724-13.173 11.904l-.197 2.954c4.073-4.18 9.076-8.702 14.85-13.5" fill="#EE293D"/><path d="M115.775 130.61c36.64 15.038 30.28-22.963 10.75-52.06-11.07-16.485-24.72-29.562-34.61-36.847-11.55-8.508-12.677-9.213-12.677-9.213 25.79 12.213 49.22 42.205 58.888 64.3 4.465 10.203 16.64 50.57-22.136 34.25" fill="#FFF"/></g></svg>