<svg width="436" height="260" viewBox="0 0 436 260" xmlns="http://www.w3.org/2000/svg" xmlns:xlink="http://www.w3.org/1999/xlink"><title>earth</title><defs><ellipse id="a" cx="236.578" cy="130" rx="129.578" ry="130"/><path d="M1.835 22.23c-2.524 6.12.802 11.08 7.44 11.08h47.25c6.632 0 10.144-5.037 7.284-11.013 0 0-5.035-22.26-31.182-22.297C6.482-.037 1.835 22.23 1.835 22.23z" id="c"/></defs><g transform="translate(-18.308)" fill="none" fill-rule="evenodd"><mask id="b" fill="#fff"><use xlink:href="#a"/></mask><use fill="#16A4FD" xlink:href="#a"/><g mask="url(#b)"><g transform="rotate(-34 144.963 -289.713)"><rect fill="#51DE4D" x="60.254" width="169.747" height="31.2" rx="15.6"/><rect fill="#51DE4D" y="62.4" width="169.747" height="31.2" rx="15.6"/><path d="M51.14 140.62c.304-8.588 7.516-15.58 16.116-15.617l137.54-.592c8.597-.036 15.566 6.897 15.566 15.5v.068c0 8.597-6.97 15.566-15.57 15.566H66.186c-8.6 0-15.325-6.972-15.023-15.55l-.022.626z" fill="#51DE4D"/><rect fill="#51DE4D" x="73.211" y="187.2" width="169.747" height="31.2" rx="15.6"/><g transform="translate(2.954 93.06)"><rect fill="#51DE4D" x="46.648" width="105.606" height="32.5" rx="16.25"/><rect fill="#16A4FD" width="73.211" height="32.5" rx="16.25"/></g></g><g transform="rotate(-34 610.417 46.49)"><rect fill="#51DE4D" x="20.05" y="62.336" width="169.747" height="31.2" rx="15.6"/><g transform="rotate(180 100.732 31.636)"><rect fill="#51DE4D" x="46.648" width="105.606" height="32.5" rx="16.25"/><rect fill="#16A4FD" width="73.211" height="32.5" rx="16.25"/></g><rect fill="#51DE4D" x=".362" y=".111" width="169.747" height="31.2" rx="15.6"/></g></g><g mask="url(#b)"><g transform="translate(205.565 159.25)"><mask id="d" fill="#fff"><use xlink:href="#c"/></mask><use fill="#525252" xlink:href="#c"/><path d="M32.956 59.724c11.092 0 20.085-9.022 20.085-20.15 0-11.13-8.992-17.474-20.084-17.474-11.092 0-20.085 6.345-20.085 17.474 0 11.128 8.994 20.15 20.086 20.15z" fill="#C16A41" mask="url(#d)"/></g><g fill="#525252"><g transform="translate(265.733 113.75)"><path d="M1.83 19.342c-1.092-2.078-.263-4.56 1.87-5.556l24.6-11.47c2.126-.992 4.65-.077 5.645 2.056l-.02-.045c.99 2.127.08 4.654-2.055 5.652L7.655 21.303c-2.127.994-4.737.112-5.826-1.962z"/><rect transform="rotate(25 18.104 23.406)" x=".287" y="19.181" width="35.634" height="8.45" rx="4.225"/></g><g transform="matrix(-1 0 0 1 210.662 113.75)"><path d="M1.83 19.342c-1.092-2.078-.263-4.56 1.87-5.556l24.6-11.47c2.126-.992 4.65-.077 5.645 2.056l-.02-.045c.99 2.127.08 4.654-2.055 5.652L7.655 21.303c-2.127.994-4.737.112-5.826-1.962z"/><rect transform="rotate(25 18.104 23.406)" x=".287" y="19.181" width="35.634" height="8.45" rx="4.225"/></g></g></g><g fill="#BBDFFF"><path d="M385.776 113.877c.558 2.044 14.735-9.542 30.213-16.75 15.477-7.207 23.486-5.63 27.57-7.802 9.914-5.27 13.692-17.555 8.437-27.437-2.937-5.525-7.71-9.714-13.285-11.086-4.396-1.082-9.29-.412-14.18 2.738-11.14 7.182-39.706 56.862-38.756 60.337zM388.234 131.67c-.48 1.503 13.077.017 25.67 1.793 12.595 1.776 16.96 6.01 20.392 6.312 8.332.73 15.675-5.413 16.402-13.718.406-4.644-.876-9.197-3.802-12.316-2.308-2.46-5.638-4.026-9.97-4.04-9.873-.035-47.875 19.413-48.692 21.97zM391.36 145.64c-.99.533 6.697 6.483 12.274 13.63 5.577 7.145 5.718 11.476 7.33 13.33 3.91 4.5 10.715 4.986 15.2 1.088 2.507-2.18 4.104-5.15 4.148-8.197.035-2.402-.897-4.854-3.11-7.006-5.046-4.906-34.157-13.75-35.84-12.844z"/></g><g fill="#BBDFFF"><path d="M87.22 113.877c-.557 2.044-14.735-9.542-30.212-16.75-15.478-7.207-23.487-5.63-27.572-7.802-9.914-5.27-13.69-17.555-8.437-27.437 2.937-5.525 7.71-9.714 13.285-11.086 4.396-1.082 9.29-.412 14.178 2.738 11.142 7.182 39.708 56.862 38.758 60.337zM84.762 131.67c.48 1.503-13.077.017-25.67 1.793-12.594 1.776-16.958 6.01-20.39 6.312-8.333.73-15.677-5.413-16.403-13.718-.408-4.644.874-9.197 3.8-12.316 2.308-2.46 5.64-4.026 9.97-4.04 9.874-.035 47.876 19.413 48.692 21.97zM81.636 145.64c.99.533-6.696 6.483-12.273 13.63-5.577 7.145-5.718 11.476-7.33 13.33-3.91 4.5-10.716 4.986-15.2 1.088-2.507-2.18-4.105-5.15-4.148-8.197-.035-2.402.896-4.854 3.11-7.006 5.045-4.906 34.156-13.75 35.84-12.844z"/></g></g></svg>