<svg width="571" height="380" viewBox="0 0 571 380" xmlns="http://www.w3.org/2000/svg"><title>Chart</title><g fill="none" fill-rule="evenodd"><text font-family="OpenSans-Bold, Open Sans" font-size="16" font-weight="bold" letter-spacing="-.133" fill="#B8B8B8" transform="translate(-5 -4)"><tspan x="302" y="384">YEAR</tspan></text><g font-size="16" font-family="OpenSans, Open Sans" letter-spacing="-.133" fill="#B8B8B8"><text transform="translate(98 321)"><tspan x=".47" y="17">1890</tspan></text><text transform="translate(98 321)"><tspan x="67.47" y="17">1910</tspan></text><text transform="translate(98 321)"><tspan x="140.47" y="17">1930</tspan></text><text transform="translate(98 321)"><tspan x="209.47" y="17">1950</tspan></text><text transform="translate(98 321)"><tspan x="278.47" y="17">1970</tspan></text><text transform="translate(98 321)"><tspan x="345.47" y="17">1990</tspan></text><text transform="translate(98 321)"><tspan x="420.47" y="17">2010</tspan></text></g><g fill="#B8B8B8"><text font-family="OpenSans, Open Sans" font-size="16" letter-spacing="-.133" transform="translate(37 299)"><tspan x=".415" y="17">-0.5</tspan></text><path d="M80 311h491v1H80z"/><text font-family="OpenSans, Open Sans" font-size="16" letter-spacing="-.133" transform="translate(37 198)"><tspan x=".423" y="17">0.0</tspan></text><path d="M80 210h491v1H80z"/><text font-family="OpenSans, Open Sans" font-size="16" letter-spacing="-.133" transform="translate(37 97)"><tspan x=".423" y="17">0.5</tspan></text><path d="M80 109h491v1H80z"/><g><text font-family="OpenSans, Open Sans" font-size="16" letter-spacing="-.133" transform="translate(37 -4)"><tspan x=".423" y="17">1.0</tspan></text><path d="M80 7h491v1H80z"/></g></g><path d="M80.702 250.038l1.476-15.42 4.774-5.545 2.19 24.07 2.507 11.6 8.04 8.572 4.29 2.748 3.73-24.275 1.217-16.927 3.288 26 .944 22.28 4.947-25.934 3.038 11.36 5.1 4.6 4.602-19.304 3.558-12.478 4.656-8.39.707 33.39 5.805-26.368 3.8-11.795 1.725 9.875 3.47 28.15 3.54 12.728 2.68 19.597 6.598-32.793 3.47-11.6 1.92 35.636 2.432 6.933 2.344 6.5 7.27-3.3 5.634-19.932 9.017-37.056 1.987-8.68.747 45.055 4.427 9.018 3.81-26.73 3.472-8.05 10.614 12.545-2.322-13.087 11.35 10.58 1.552-10.993 5.612-23.187 6.586 24.642 4.134 29.232 2.768-44.49 4.167-10.503 2.722 17.015 3.83 19.695 2.344-27.073 5.97 12.633 1.55-9.615 2.834-26.514 5.534 2 6.01-23.383 2.69-8.292 5.122 5.208 1.552-6.24 5.708-25.423 3.223 28.614 1.28 29.81 1.292 3.517 8.445 8.998 6.577 18.61 4.512-23.763.607-16.375 5.948-16.237.25 41.885 3.212 6.153 4.666 11.44 2.757-48.406 3.972-6.924 4.483 7.943.694 8.497 3.277-13.163 5.035 7.28 4.85-7.617 2.17 49.31 4.417-16.81 6.962-17.674 3.788 10.656 4.07-29.232 5.642 33.063 4.405-18.473 4.33-28.875 2.78 42.948 8.06 9.083 2.4-58.677 4.6 21.224 2.268-19.73 2.43-18.034 5.21-13.704.77 38.448 5.11-30.535 3.04 29.22 3.2 5.178 6.653-13.262-.086-28.635 4.428-17.697 5.045 24.893 2.354-31.132 4.59 1.042.88 43.576 7.78-3.886 2.235-15.844 1.15-27.496 5.71 20.326 2.582-26.044 4.274-33.68 5.113 47.363 5.166-27.867 1.31-15.465 4.07 2.767 3.54 15.573 4.156-29.815 3.47 11.752 2.856-5.99 3.56 23.765 3.992-21.355 4.85 9.67.056-21.715 5.71 16.56.26-15.43 4.254 11.524 3.45-19.76 2.92-30.105 3.31-20.93" stroke="#C16A41" stroke-width="2"/><text transform="rotate(-90 6.5 163)" font-family="OpenSans-Bold, Open Sans" font-size="16" font-weight="bold" letter-spacing="-.133" fill="#B8B8B8"><tspan x="-61.5" y="168.5">ANNUAL MEAN (C)</tspan></text></g></svg>