<svg width="208" height="193" viewBox="0 0 208 193" xmlns="http://www.w3.org/2000/svg"><title>WHO logo</title><g fill="#058CCD" fill-rule="evenodd"><path d="M134.724 67.79v-.81l-.472.607.137.74.33-.538zm-.335 3.908l.33.2.406-.603.605-1.08-.335.067-.54.27-.27-1.55-.338.27.27.943-.338.74-.473-.133-.607.403.068 1.01 1.216-.537zm1.814-3.706l.81.605.943-.202-.74-.203-.204-.808v-.608l-.405-.74-.54.202-.27-.203-.808.74 1.28.677-.067.54zm6.607-6l.677.673.334-.068.54.34-.133-.407-1.348-.943-.878-.808.405 1.21h.404zm-11.055 11.39l.337-.674-1.485.068-.674.47.74.27 1.08-.134zm15.71.135l.606 1.08-.2.404.54 1.82.47.138V75l-.54-.675-.2-2.02-.94-2.45-.19.435.254 1.408.202 1.82zm-3.91-9.64l1.077 1.687.674.336-1.147-1.954-.606-.068zm3.033 4.72l.405.2-1.012-2.02-.537-.134.538.876.608 1.074zM134.916 53.84c-.054.14-.1.287-.157.427l.503.38.54-.204-.888-.602zM45.18 124.22l-.075-.654-.724-.87-.43.146.797 1.014-.072.29.65.724.436.94.363-.144-.362-.796-.58-.65zm91.643-88.62l.757.55 1.788.62.62 1.1h.48l-.136-1.17-.552-.414.14-.618-1.1-.48-.414.413-.55-.273.274-.618-1.307.894zm-21.99 105.386l.062.034-.03-.097-.03.063zm55.092-23.418c-3.59 8.474-8.714 16.09-15.23 22.644l-9.432-9.428c5.293-5.328 9.457-11.517 12.37-18.407 2.932-6.926 4.458-14.27 4.572-21.834h13.334c-.117 9.367-1.99 18.455-5.618 27.025zM143.34 128.86l.082-.477.673-.608-.607-3.033.135-.81-.674-1.28-.41-.404.406-.065-.54-.743-1.282-.067v1.01l-.47.403.336.81-.54 1.55-.404.272.156.31-5.233-5.23c7.976-8.05 12.45-18.65 12.68-29.955h13.534c-.228 14.92-6.11 28.916-16.644 39.525l-1.204-1.207zm-9.517 9.693l.024-.06.472-.81-.476-1.213 1.753-1.483-.136-1.012-1.28-.672 1.28-2.493 1.484-2.427-1.752-2.16-.608.204-.81-.203-.74-1.617-.337.135.406-1.55.26-1.177c.293-.268.592-.533.88-.81l5.84 5.836.032.06.036.01 3.667 3.666c-3.074 2.99-6.43 5.582-9.997 7.78zm-1.527-23.314l-2.24 1.765-.32.252-.204-.338h-1.08l-1.55.336-1.482-.606h-.742l-1.148-.88-.74.07-.674-.605-1.08-.07-.538-.74-.473-.183c.034-.02.065-.042.1-.067l.642.113v-.335l1.552.272.534.334 1.685.27.136.404h1.347l1.822.536.52.863 1.097-.05.81-.876.674-1.35 1.012-2.63-.205-.47.472-.473.404-1.617-.27-.675.337-.54-.47-.606-.138-1.617-1.146.266-.675.946-1.01-.07.132 1.213-.81 1.013-.672-.338-.607.535-1.55.137-.064-.055c.34-.378.67-.766.99-1.16h.69l.75-.135.736-.808.134-.64.74-.034 1.417-2.088 1.146-2.428 3.034-1.413-.068-.81-.405-.402.2-.27.945.47 2.023.407 1.62-.673 2.628-.54-.674-1.887-1.147-1.146-1.417-.067-1.82-4.382-.27.204-.673-.538.54-.338-.03-.16h9.852c-.225 11.03-4.593 21.376-12.38 29.236l-.295-.294.09-.34.335-1.683-.336-2.63-.607-1.55-.407.403-.742 1.08v.472zm-8.562-38.02l1.144-.403-1.28-.877.742-.875-.135-.472 1.215-.54-1.147-1.348-1.348 1.215-.203.874-.875-.405-.945.14-.27-.61-.008-.004 2.184-2.184.185.232 1.887.067.642-.77c.906 1.07 1.735 2.208 2.48 3.403l-.02-.004-.946 2.02-1.48-.807-.406.068.405.81.47.337-.47 1.144-.204-.537-1.613-.473zm-.024-6.39l.754-.754c.275.29.543.587.806.89l-.863.728-.74-.068-.27-.27.606-.405-.293-.12zm10.925-10.92c1.013 1.05 1.96 2.14 2.853 3.267l-.538.294-.608.136.944.267.442-.38c.424.546.832 1.1 1.225 1.662h-.453v.27l.473.133 1.414 2.224.396.196c.166.284.32.573.48.86v.897l-.942 1.01-.27-.74-.81-.134.34.877-.604.605 1.48.538.61.878 1.212.337.068.54 1.08.27.202 1.684.65-.09c.38 1.087.707 2.194 1 3.317l-.032.01-.676 1.146-.945.472-.674 1.955-1.752 1.01-.607-1.08.54-2.56.807-.605-2.696-2.09-1.414.742-1.28 2.627-1.35-.742-.403-1.077.74-.336.337.47.605-.204-.202-.81-.878-.267.068.537h-.606l-.676-1.01-1.55-1.55-1.82-1.28-1.685-.135-.17.233c-1.087-1.772-2.35-3.426-3.776-4.926l9.453-9.45zm6.764 6.93l-.03.164-.17-.273.2.11zm-2.7 18.605l1.89-1.214 2.29-.202.605-1.28.742-.406 1.01-1.75.25-.9c.077.33.15.66.22.992l-.4 1.053.135.27-.54 1.077.065.54-1.075 1.485.2.94.405.067 1.08-1.683v-1.01l.54-.135.054-.084c.31 2.073.476 4.184.483 6.32h-10.19l-.26-.175.07-.807.876-.338.672-.944 1.618-.202v-.673l-.74-.94zm-3.32-26.283l1.16 1.276.61-1.887-.945-.134v-.08l2.947-2.947 1.934 2.007 1.858-.138.62 1.032.207 1.58 3.714 2.203 1.032-.138 2.477 2.82.55 1.443 1.72 1.79 1.996-.07.883-1.87c3.295 7.287 5.048 15.246 5.064 23.477H147.67c-.005-2.57-.245-5.103-.683-7.583l.615-.95h.337l.74-3.166-.54-.135.134-.538-1.35.065-.27-.336-.268.608.806.673-.605.2-.228.6c-.324-1.295-.706-2.574-1.146-3.83l.766-1.15-.202-1.347-.672-.134-.27-1.482.405-.336-.74-1.012-1.28.133-.428-.286c-.28-.54-.577-1.07-.88-1.6h1.308l-.27-.673.875-.27V66.3l-.605-.066-.877.675-.27-.27.74-1.147-.604-.405-.74 1.08-.9-.45c-.713-1.09-1.48-2.15-2.296-3.18l.024-.28-.115.154c-.885-1.112-1.827-2.187-2.828-3.22l.032-.032zm19.69-19.683c6.334 6.465 11.335 13.94 14.85 22.247 3.726 8.804 5.62 18.16 5.637 27.8h-13.34c-.014-7.84-1.555-15.45-4.587-22.61-.292-.696-.607-1.377-.926-2.057l.343-.72.755.48.275-.824-4.47-7.288-.965-.276-6.604-7.565-.002-.15 9.036-9.034zM37.7 117.57c-3.625-8.57-5.502-17.658-5.615-27.025H45.42c.09 5.908 1.052 11.676 2.858 17.223l-1 .665-2.606-1.447-.58.58-.725-.362-.435.363.29.94-1.522-.07-.868-.51.072-.795-.217-.652h-.434l.072.725-.072.435-.362-.146-1.083.51.723.575-.94-.218-.437.506.51.215h-.654v1.087l.29.58.36.288h-.58l.29.94.58.218.207.36.372.656.22.58-1.306-.798.506 1.378-.87-1.885v1.232l.798 1.88.65 1.594 2.03 3.984-.217-.8-1.592-3.84v-1.445l.797-1.304 2.608 3.114.363-.29-.434-1.956.507.36.795 1.378 1.306.36.58.87.506.073-.433-1.085.433-.58.435 1.52.943 1.52.87-.143 2.316 3.91 1.303.363.363-1.593.507.65 1.956 2.825 2.44.652c1.38 1.74 2.846 3.42 4.427 5.014l-9.43 9.428C46.4 133.636 41.282 126.03 37.7 117.567zm0-55.84c3.51-8.294 8.504-15.76 14.824-22.216l9.43 9.425c-5.094 5.23-9.126 11.27-11.964 17.98-3.03 7.16-4.573 14.77-4.588 22.61H32.065c.017-9.64 1.91-18.997 5.636-27.8zm22.273 28.815c.04 2.06.228 4.1.547 6.102l-.707-.38v.94l-.51-.217-.432-.723-1.012.433-.144.87-2.318 3.55-.65.143-.29 5.94-1.667.798-.508-.22-.795.365L49.6 108l-.202-.086c-1.85-5.535-2.868-11.374-2.96-17.367h13.537zm12.99-30.602l9.453 9.453c-2.18 2.3-3.99 4.945-5.347 7.848l-.527-.093.434-.58-1.086.944-.87.58-.216-.363-1.52.58.072.578.794-.507 1.377-.07 1.22-.332c-.068.15-.136.298-.2.45L74.95 79.54l-.36-.363-1.887 1.377-1.666-.29-1.086 1.304-1.664 3.694.29 1.014-1.378 1.81-.216 1.377-.02.07h-5.99C61 78.4 65.256 67.935 72.965 59.94zm4.74 18.38c.082-.188.16-.375.245-.56l.263-.033-.285.58-.22.012zm1.814 17.44l1.375.576.942 1.16.434-.29 1.595 1.014.58.725-1.088-.437-.216.436.94.504 1.012.8v-.51l-.218-.794.434-.723.51-.29-1.017-1.232 1.16.58.725.943.507 1.303 1.014.218-2.174.363.796 1.738.725.074.144-.725-.216-.868.94-.07.726-1.235.29-1.81.51-.218.45-.714c.69 1.394 1.576 2.67 2.647 3.778l-9.536 9.535c-4.16-4.23-7-9.755-7.873-15.904l.546.05 1.81 1.81 1.523.22zm-10.142-7.316l.362-2.39 1.956-1.015 2.317.58.487.88c-.108.996-.168 2.008-.172 3.03h-3.563l-.01-.29-1.377-.796zm3.967 31.31c-.838-.85-1.63-1.732-2.39-2.635h.016l.435-1.52-.072-1.74-1.373-2.39v-2.46l-.507-1.59.36-.654-1.45-2.608.146-.94-.798-1.522-.796-.217 1.306-.216-.362-.506-.87-1.884-1.52-.435.362-1.23-.58-1.955.725-1.666 1.81-.145.51-.868-.186-2.03h1.146l.704.218.87.436-.025-.653h3.543c.028.914.1 1.815.21 2.705l-.035.048-.8-.07-1.16 1.303 1.017.218 1.097-.657c.95 6.264 3.868 11.892 8.123 16.215l-9.455 9.45zm-.95.95l-.55-1.064c.26.275.515.558.783.83l-.234.232zm-3.526-3.584l-.144-.362.723.12c.144.18.28.36.426.54l-1-.297zm-4.272-19.117l-1.522.36-.652-.65-.435-.29-.394-.528c-.35-2.08-.56-4.203-.6-6.352h5.71l-.076.29-.795 1.378-.51.07-.94 3.044.87 1.375-.653 1.304zM63.05 130.04c-1.01-1.02-1.964-2.08-2.89-3.16l.887.38.868-.505 2.39 1.52.396.12-1.65 1.646zm107.81-68.706c-3.664-8.66-8.91-16.44-15.592-23.12-6.683-6.68-14.465-11.925-23.13-15.59-6.857-2.897-14.042-4.695-21.432-5.386-.058.363-.105.698-.144 1.005 7.304.678 14.404 2.45 21.18 5.315 8.468 3.58 16.075 8.696 22.623 15.197l-8.37 8.37-.02-.592-.688.07-.825-.413-1.24-.344 1.72-.273-.343-.483h-.966l.277-.755-.827-2.063-2.2-2.684-2.133-1.375-1.17-.688-.895.207v-.55l-2.063-.896-.813.76c1.512 2.576 2.292 5.228 2.43 7.592.103 1.815.02 3.543-.246 5.19l.69-.405 2.204 3.99-1.515.136 1.075 1.112-2.555 2.555-1.306-1.63.12-1.22c-.352.84-.764 1.65-1.233 2.435l.166.332 1.618.204.16.35-.78.78c-.452-.448-.914-.88-1.383-1.305-.18.29-.374.574-.57.854.416.383.832.766 1.237 1.167l-9.456 9.45c-.773-.76-1.594-1.475-2.448-2.148-.348.16-.698.315-1.054.465.978.74 1.912 1.54 2.787 2.4l-1.22 1.22-.016-.024.202-.67-.943.27-1.013-.137v-.81l-1.078.675-1.147 1.075.54.34 1.146-.744 1.145.406v.203l.77-.194-2.646 2.646-3.11.65-.88 1.147-.605.403-.068.606.472-.068.47.405-.097.672-.227.23-.755-.16-1.786.28c-.343-.265-.696-.52-1.06-.752l-.118-.136-.505-.233c-.626-.36-1.283-.66-1.96-.93l-.053 3.84-.057 3.465.42-.21.363.35-.796.794-.024 1.457 1.51-1.508-.31 1.062.443.154.317 1.626.856.85-2.02-1.08-.16.77c2.64 1.072 6.244 2.66 9.17 4.854 4.43 3.324 6.706 7.93 6.09 12.327-.443 3.175-2.283 5.882-5.278 7.862l.086.34-.608.74-1.08.133-.403.676-2.09.873-1.888-.068-.54.81.337.54-.008.006c-.254.09-.508.18-.766.264l-1.32.133-.335-.54-1.484.202-.02-.007c-.28.094-.547.188-.816.284l-.004 1.045c0 .31-.065 2.694-.16 6.1 4.79 2.4 10.733 6.34 10.48 16.787 0 0-.108 1.903-.655 3.28l.008.01 2.072.6c-4.068 1.234-8.29 2.02-12.607 2.326-.01.343-.022.687-.033 1.016 4.543-.314 8.993-1.146 13.31-2.49l.9.3.942.805 1.156-.446 1.81-.43.742-.672 2.022-.874 2.023-1.417 2.292-2.29.108-.276c4.094-2.393 7.886-5.268 11.323-8.612l9.43 9.428c-6.46 6.315-13.926 11.307-22.227 14.82-8.844 3.74-18.24 5.633-27.927 5.633-9.686 0-19.08-1.894-27.927-5.634-8.31-3.518-15.79-8.517-22.256-14.848l9.434-9.428c5.24 5.107 11.294 9.146 18.015 11.988 6.026 2.55 12.37 4.03 18.9 4.453l-.03-1.02c-13.623-.903-26.32-6.543-36.17-16.137l2.01-2.01 1.705 1.49 3.547-.288 1.45-1.45 1.955.073 1.81.218.94-.723-.07-.87-1.014-1.158-1.23-2.39-1.233-.508-.77-1.484.47-.47c7.196 6.955 16.357 11.17 26.22 12.115-.01-.342-.017-.684-.027-1.02-9.578-.946-18.477-5.053-25.475-11.81l9.453-9.45c2.493 2.364 5.395 4.3 8.587 5.687.072-.336.16-.673.27-1.007-3.02-1.33-5.775-3.157-8.14-5.397l9.546-9.542c1.49 1.35 3.254 2.39 5.192 3.057l-.02-1.073c-1.653-.62-3.163-1.54-4.455-2.697l.627-.628.335-.02.575-.577 1.278.167.74-.41.824-.09-.03-1.692-2.91-.95-.108.095-1.194.204-.866 1.193-.37 1.52.016.095c-1.186-1.322-2.12-2.862-2.734-4.56l.086-.44c-.87-.393-1.676-.814-2.423-1.264L87.69 93l-.725-.436L85.88 93l-.58-.51.654-.65.862-.173c-2.985-2.214-4.788-5.055-5.722-8.83-.56-2.27-.728-4.468-.54-6.562l-1.338.5-.848.097c.882-1.748 1.947-3.387 3.156-4.91.432-1.182.987-2.318 1.682-3.39-.032.03-.064.056-.094.088l-9.454-9.45c6.602-6.536 14.955-10.668 23.995-11.96l-.016-1.02C88.33 47.532 79.73 51.77 72.94 58.492l-2.29-2.29c-.002.01-.01.017-.01.023-.183.37-.324.69-.436.965l2.03 2.03c-7.9 8.182-12.26 18.902-12.29 30.303H46.416c.03-15.015 5.8-29.134 16.254-39.875l3.725 3.72c.256.033.55.05.852.024.178-.014.354-.043.53-.078l-4.397-4.397c2.944-2.922 6.156-5.472 9.57-7.66.195-.575.454-1.14.776-1.682-4.005 2.41-7.706 5.294-11.064 8.627l-9.43-9.426c6.555-6.515 14.173-11.64 22.652-15.225 6.734-2.845 13.79-4.62 21.048-5.305l-.145-1.005c-7.344.7-14.483 2.495-21.3 5.377-8.664 3.664-16.446 8.91-23.127 15.588-6.68 6.68-11.93 14.46-15.593 23.12-3.796 8.97-5.718 18.497-5.718 28.317 0 9.818 1.92 19.343 5.714 28.313 3.664 8.66 8.912 16.438 15.594 23.12 6.68 6.68 14.463 11.925 23.13 15.59 8.97 3.79 18.5 5.715 28.32 5.715 9.825 0 19.353-1.925 28.324-5.716 8.665-3.666 16.447-8.91 23.13-15.59 6.68-6.68 11.928-14.46 15.592-23.12 3.795-8.97 5.718-18.496 5.718-28.315 0-9.82-1.923-19.348-5.718-28.317zm-27.37 34.222l-1.89.676.472.74 1.35.135.068-1.55zm-51.61-1.138c-.202-.08-.402-.163-.597-.246l-.102 1.297.7-1.055zm.913.354c-.3-.11-.597-.224-.884-.342l.064.82.816-.478zm-23.41-38.406c.062-.457.15-.846.25-1.188l-.59-.59c-.44.09-.883.147-1.316.12l1.657 1.658zm27.81 21.214l-.058-.19c.026-.013.05-.03.075-.04l-.018.23zm-.073-1.81l.083.453c-.898.444-1.727.996-2.51 1.605-.012 1.06.403 2.183 1.204 3.21.342.44.742.817 1.25 1.175l1.437-.62-.11-6.164-.485.05.14-.727.32-.495-.01-.623-.308.248-.652 1.016-.36.867zm11.245 57.438v.04l.067-.008c-.02-.012-.044-.023-.067-.032zm-36.818-34.12l-.29.22-.217.287-.506-1.086-.218.214.218.94.29.582-.22.36.582.723.36.8.292-.075.072-1.23-.29-.653-.073-1.086zm-.58-6.516l.58 1.52-.36.506.144.796-.215 1.162-.434.29.725 1.88.218-.07-.217-1.668.58-2.825-.436-1.447-.58-.144zm39.35 9.39l.04.002c-.026.013-.05.03-.08.044l.04-.046zm-.81 2.223l.135.54-.06.245c2.19-1.076 2.504-1.7 2.482-1.984-.073-.865-1.36-1.76-3.2-2.63-.01.66-.022 1.245-.032 1.77l.367.392c-.127.05-.255.092-.38.14l-.02 1.09c.215-.076.433-.143.643-.233l.06.67zm8.09-32.016h1.013l.2-.408-.875-.202-.337-.54-1.08.07.542.74v.876l.538-.54zm-1.55 1.21l-.473.336-.2-.27-1.28 2.156 1.145-.2.064-.81.875-.877.675-.608-.405-.54-.403.81zm-4.72-.877l-1.348.068-.41.674h-.276l-.028 2.18 1.384-.63.674-2.29zm9.57-23.254c-3.533-1.495-7.262-2.51-11.11-3.034-.01.34-.017.685-.025 1.017 3.665.508 7.22 1.474 10.59 2.885.2-.29.387-.58.545-.87zM80.29 191.596l5.328.533s6.805-14.96 23.93-15.677c10.995-.46 20.608 5.037 32.32 5.887 14.064 1.02 23.67-1.948 31.718-9.608-8.51 4.684-18.548 2.662-30.158 0-7.55-1.734-15.288-2.458-21.026-2.4-26.64.263-42.112 21.264-42.112 21.264m80.385-49.38c-2.49 2.49-5.83 5.773-9.076 12.738-3.15 6.765-3.188 9.488-6.25 14.413 6.96-2.606 12.114 2.418 29.674-4.082 8.124-3.003 13.905-10.653 16.58-17.296-6.248 5.643-11.304 8.51-18.743 9.61-7.327 1.075-12.013 1.56-18.14 5.16 3.845-4.085 5.286-6.366 7.328-11.77 2.19-5.796 1.837-10.78 4.326-15.25-1.788 2.26-3.21 3.986-5.702 6.475"/><path d="M169.527 133.56c-1.826 9.514-1.287 17.467-6.154 23.558 6.48-5.386 12.798-5.35 21.506-9.25 10.38-5.103 15.864-14.032 18.74-27.023-2.304 5.735-8.21 11.155-14.78 15.254-5.605 3.5-11.586 5.22-15.738 10.33 2.403-2.887 3.036-4.29 3.573-7.506 1.686-8.81-1.115-13.804.212-23-1.353 3.803-6.188 11.503-7.364 17.634"/><path d="M179.39 105.612c-.668 14.914 5.44 17.973 1.044 31.688 3.844-5.524 8.395-7.183 14.297-12.37 7.35-6.492 13.41-16.298 12.86-29.544-1.384 3.703-5.768 10.807-10.57 15.852-4.81 5.045-8.856 11.088-10.937 15.252 4.805-16.48-3.783-22.747-4.82-32.635-.27 3.73-1.633 9.273-1.87 11.757"/><path d="M182.25 88.67c-1.303-4.84-.744-7.717-1.872-13.143 1.978 4.844 13.514 13.426 12.31 29.943.65-3.027 3.008-12.2 6.368-18.613 2.645-5.044 5.326-10.078 4.687-17.537 3.037 9.827 2.883 15.495 1.562 20.42-1.322 4.923-4.618 8.705-7.45 12.61-1.86 2.57-5.806 7.586-7.69 12.25.15-10.108-6.21-19.594-7.915-25.93"/><path d="M178.578 66.61c-2.17-4.14-3.007-7.56-5.814-12.813 1.734 2.255 3.238 3.46 7.55 7.116 5.94 5.035 10.454 10.69 12.805 20.1.17-5.86.89-9.367 2.09-15.898 1.08-5.884.797-12.618-1.925-20.06 5.25 6.35 9.765 18.857 7.21 27.266-2.025 7.986-5.475 12.025-6.49 17.66-3.513-11.27-12.457-17.693-15.43-23.367"/><path d="M181.424 56.17c-2.63-2.112-9.212-6.212-12.434-9.998-3.213-3.776-4.847-7.38-7.114-10.71 4.752 4.366 7.344 5.66 12.19 8.634 4.392 2.507 10.33 5.885 12.734 11.193-1.44-3.99-2.16-9.27-2.643-13.72-.717-6.62-3.423-10.654-5.405-13.09 6.48 5.21 10.402 9.605 12.134 18.977 1.734 9.372-.24 16.454.42 21.502-3.438-6.82-7.257-10.68-9.882-12.794"/><path d="M182.596 46.38c-2.883-8.647-5.897-13.804-11.774-18.737-7.7-6.464-15.87-9.494-19.105-11.052 6.3 4.495 5.973 8.386 14.355 16.28 6.557 6.18 11.17 6.667 16.524 13.51M127.332 191.6l-5.328.533s-6.803-14.96-23.93-15.676c-10.995-.46-20.608 5.037-32.318 5.887-14.066 1.02-23.673-1.947-31.72-9.607 8.512 4.684 18.548 2.662 30.158 0 7.55-1.734 15.288-2.458 21.026-2.4 26.64.263 42.112 21.264 42.112 21.264m-80.387-49.38c2.495 2.49 5.834 5.773 9.08 12.738 3.148 6.765 3.182 9.488 6.247 14.413-6.963-2.606-12.117 2.418-29.676-4.082-8.125-3.003-13.906-10.653-16.58-17.296 6.247 5.644 11.303 8.51 18.742 9.61 7.328 1.076 12.014 1.56 18.14 5.16-3.844-4.084-5.285-6.365-7.327-11.77-2.19-5.795-1.833-10.78-4.32-15.25 1.786 2.262 3.21 3.987 5.7 6.476"/><path d="M38.095 133.56c1.826 9.514 1.287 17.467 6.154 23.558-6.485-5.386-12.8-5.35-21.51-9.25C12.357 142.765 6.873 133.836 4 120.845 6.303 126.58 12.21 132 18.778 136.1c5.606 3.5 11.587 5.22 15.74 10.33-2.404-2.884-3.035-4.286-3.572-7.503-1.688-8.81 1.113-13.804-.214-23 1.355 3.803 6.19 11.503 7.365 17.634"/><path d="M28.235 105.612c.666 14.914-5.442 17.973-1.047 31.688-3.844-5.524-8.395-7.183-14.298-12.37C5.545 118.438-.517 108.632.035 95.386c1.385 3.703 5.768 10.807 10.574 15.852 4.802 5.045 8.85 11.088 10.93 15.252-4.8-16.48 3.784-22.747 4.82-32.635.27 3.73 1.633 9.273 1.87 11.757"/><path d="M25.372 88.67c1.303-4.84.747-7.717 1.872-13.143-1.978 4.844-13.512 13.426-12.31 29.943-.65-3.027-3.007-12.2-6.37-18.613C5.924 81.813 3.24 76.78 3.88 69.32.84 79.147.995 84.815 2.316 89.74c1.322 4.923 4.618 8.705 7.45 12.61 1.86 2.57 5.807 7.586 7.69 12.25-.15-10.108 6.21-19.594 7.915-25.93"/><path d="M28.033 68.147c2.772-4.086 4.02-9.097 6.825-14.35-1.733 2.255-3.236 3.46-7.55 7.116-5.94 5.035-10.452 10.69-12.805 20.1-.172-5.86-.893-9.367-2.094-15.898-1.085-5.884-.8-12.618 1.92-20.06-5.25 6.35-9.764 18.857-7.207 27.266 2.022 7.986 5.473 12.025 6.487 17.66 3.515-11.27 10.796-16.484 14.42-21.83"/><path d="M26.2 56.17c2.626-2.112 9.21-6.212 12.433-9.998 3.212-3.776 4.846-7.38 7.113-10.71-4.752 4.366-7.344 5.66-12.19 8.634-4.393 2.507-10.33 5.885-12.734 11.193 1.44-3.99 2.16-9.27 2.643-13.72.717-6.62 3.423-10.654 5.405-13.09-6.48 5.21-10.402 9.605-12.134 18.977-1.733 9.372.24 16.454-.42 21.502 3.44-6.82 7.257-10.68 9.883-12.794"/><path d="M25.024 46.38c2.885-8.647 5.898-13.804 11.776-18.737 7.7-6.464 15.87-9.494 19.105-11.052-6.3 4.495-5.972 8.386-14.356 16.28-6.56 6.18-11.17 6.667-16.53 13.51m76.454 75.017c-.09 1.054.62 29.386.863 32.32.59 7.107 2.74 7.207 3.213.363.14-2.03 1.126-35.367 1.126-36.547-3.004.942-5.05 2.11-5.204 3.863zm5.245-15.19c.04-.284.477-34.16.503-35.322-1.295.187-5.523 1.316-6.65 1.757.013.757.53 35.544.53 35.544s1.285-.46 2.542-.88c1.39-.417 2.427-.85 3.076-1.098zm-6.767-47.63c2.25-.684 5.353-.97 7.49-1.732 0-2.858.817-36.393.937-38.155.337-4.95 5.096-18.343-4.65-18.343-9.494 0-5.29 14.125-4.534 18.713.29 1.76.76 36.6.76 39.515zm34.163-13.813c-.408-7.033-7.404-16.684-23.86-17.793-.06 2.333-.13 4.99-.197 7.745 1.066.13 1.956.293 2.56.436 7.87 1.87 11.27 6.265 11.312 10.726.042 4.356-3.594 9.536-11.712 11.926-.785.23-1.69.466-2.656.7v.064l-1.538.434c-1.303.275-3.118.71-4.223.945-1.187.256-2.545.508-3.47.79l-2.446.59v-.017c-1.785.504-3.406 1.042-4.667 1.63-8.688 4.053-12.037 11.36-10.05 19.403 1.184 4.8 3.91 8.223 11.117 10.724 1.513.524 3.03 1.016 4.525 1.49l-.16-9.177c-1.927-.805-3.35-1.643-4.43-3.03-2.836-3.638-2.367-8.777 4.177-11.22v-.022l.33-.1c.092-.032.175-.07.27-.102 3.13-1.025 6.44-1.783 9.71-2.546l.654-.166v.014c4.59-1.074 9.075-2.196 12.833-4.142 6.807-3.524 12.51-9.144 11.92-19.29zM117.65 93.85c-2.693-2.022-6.038-3.507-8.598-4.548-.06 3.615-.11 6.475-.15 8.73 3.064 1.334 5.116 2.82 5.28 4.78.16 1.93-2.025 3.454-5.454 4.884v.015l-.558.21c-.83.336-1.722.66-2.67.99-.735.264-1.67.59-2.796.97-1.15.39-2.123.803-2.77 1.097-5.904 2.845-6.22 6.532-5.83 9.973.32 2.847 2.537 4.735 5.323 6.176-.066-3.242-.096-5.558-.066-5.91.137-1.534.958-2.64 2.14-3.51.97-.824 2.567-1.45 4.645-2.262 2.715-1.063 5.177-1.713 9.325-3.303 9.64-3.7 9.624-12.704 2.182-18.29zM83.792 39.41l-2.947 3.185-1.566-.256.313-1.41 2.703-2.565 2.222-.167-.73 1.21zm6.804 1.79c1.836-2.555 4.276-4.183 6.875-5.2-.05-2.89-.102-5.682-.152-8.135-4.725 1.11-6.977 2.764-7.962 3.09-2.658.882-6.235.658-10.1 4.863-.69.752-2.364 2.864-3.554 4.586-1.164 1.68-1.217 4.38-2.073 5.83-1.246 2.103-.946 3.305-.946 3.305l.15.24c-.17.5-.524 1.273-1.284 2.12-1.295 1.44-2.995 2.23-5.022 1.91 1.76.88 4.2-.356 4.2-.356s-.558 1.47-1.028 3.64c1.685-3.805 3.31-5.647 4.11-6.397.81.225 2.567.22 5.972-1.733 3.693-2.12 9.25-5.582 10.82-7.767zm17.976 85.027l-.136 4.645c3.7 1.762 6.99 4.34 8.56 9.74.21-8.61-4.136-12.108-8.424-14.385z"/></g></svg>